<?xml version="1.0" encoding="utf-8"?>
<!-- Generator: Adobe Illustrator 26.0.1, SVG Export Plug-In . SVG Version: 6.00 Build 0)  -->
<svg version="1.1" id="Layer_1" xmlns="http://www.w3.org/2000/svg" xmlns:xlink="http://www.w3.org/1999/xlink" x="0px" y="0px"
	 viewBox="0 0 841.89 248.14" style="enable-background:new 0 0 841.89 248.14;" xml:space="preserve">
<style type="text/css">
	.st0{fill:#0AA7DB;stroke:#0AA7DB;stroke-width:0.5;stroke-miterlimit:10;}
	.st1{fill:#F5AC3F;}
	.st2{fill-rule:evenodd;clip-rule:evenodd;fill:#282828;}
</style>
<g>
	<g>
		<path class="st0" d="M252.38,120.35V74.27h4.77v6.89c1.38-2.76,3.21-4.84,5.49-6.23c2.28-1.39,4.98-2.09,8.1-2.09
			c1.32,0,2.63,0.13,3.94,0.38c1.31,0.26,2.44,0.59,3.4,1.01l-1.94,4.05c-0.87-0.42-1.85-0.73-2.95-0.94
			c-1.1-0.21-2.17-0.31-3.22-0.31c-2.16,0-4.22,0.56-6.19,1.69s-3.56,2.58-4.79,4.36c-1.23,1.79-1.84,3.68-1.84,5.69v31.59H252.38z"
			/>
		<path class="st0" d="M312.54,121.79c-4.74,0-9.01-1.04-12.8-3.1c-3.8-2.07-6.8-4.94-9-8.62c-2.21-3.67-3.31-7.93-3.31-12.76
			c0-4.83,1.1-9.08,3.31-12.76c2.2-3.67,5.2-6.55,9-8.62c3.79-2.07,8.06-3.1,12.8-3.1c4.74,0,9.01,1.04,12.8,3.1
			c3.79,2.07,6.8,4.94,9.02,8.62c2.22,3.68,3.33,7.93,3.33,12.76c0,4.83-1.11,9.08-3.33,12.76c-2.22,3.68-5.23,6.55-9.02,8.62
			C321.55,120.75,317.28,121.79,312.54,121.79z M312.54,117.42c3.9,0,7.37-0.86,10.42-2.59c3.04-1.72,5.45-4.1,7.2-7.13
			c1.75-3.03,2.63-6.49,2.63-10.4c0-3.9-0.88-7.36-2.63-10.4c-1.75-3.03-4.16-5.41-7.2-7.13c-3.04-1.73-6.52-2.59-10.42-2.59
			c-3.9,0-7.37,0.86-10.42,2.59c-3.05,1.73-5.44,4.1-7.2,7.13c-1.75,3.03-2.63,6.5-2.63,10.4c0,3.9,0.88,7.37,2.63,10.4
			c1.76,3.03,4.15,5.41,7.2,7.13C305.17,116.56,308.64,117.42,312.54,117.42z"/>
		<path class="st0" d="M376.17,121.79c-4.74,0-9.01-1.04-12.8-3.1c-3.8-2.07-6.8-4.94-9-8.62c-2.21-3.67-3.31-7.93-3.31-12.76
			c0-4.83,1.1-9.08,3.31-12.76c2.2-3.67,5.2-6.55,9-8.62c3.79-2.07,8.06-3.1,12.8-3.1c4.74,0,9.01,1.04,12.8,3.1
			c3.79,2.07,6.8,4.94,9.02,8.62c2.22,3.68,3.33,7.93,3.33,12.76c0,4.83-1.11,9.08-3.33,12.76c-2.22,3.68-5.23,6.55-9.02,8.62
			C385.18,120.75,380.91,121.79,376.17,121.79z M376.17,117.42c3.9,0,7.37-0.86,10.42-2.59c3.04-1.72,5.45-4.1,7.2-7.13
			c1.75-3.03,2.63-6.49,2.63-10.4c0-3.9-0.88-7.36-2.63-10.4c-1.75-3.03-4.16-5.41-7.2-7.13c-3.04-1.73-6.52-2.59-10.42-2.59
			c-3.9,0-7.37,0.86-10.42,2.59c-3.05,1.73-5.44,4.1-7.2,7.13c-1.75,3.03-2.63,6.5-2.63,10.4c0,3.9,0.88,7.37,2.63,10.4
			c1.76,3.03,4.15,5.41,7.2,7.13C368.8,116.56,372.27,117.42,376.17,117.42z"/>
		<path class="st0" d="M418.06,120.35v-77.4h4.77v50.67l18.77-19.35h6.21L427.2,95.73l21.73,24.62h-6.12l-19.98-22.77v22.77H418.06z
			"/>
		<path class="st0" d="M467.83,65.13c-0.6,0-1.16-0.15-1.67-0.45c-0.51-0.3-0.92-0.7-1.21-1.21c-0.3-0.51-0.45-1.06-0.45-1.67
			c0-0.63,0.15-1.19,0.45-1.69s0.7-0.89,1.21-1.19c0.51-0.3,1.06-0.45,1.67-0.45c0.63,0,1.19,0.15,1.69,0.45s0.89,0.7,1.19,1.19
			s0.45,1.04,0.45,1.64c0,0.63-0.15,1.2-0.45,1.71c-0.3,0.51-0.7,0.92-1.19,1.21C469.03,64.98,468.46,65.13,467.83,65.13z
			 M465.45,120.35V74.27h4.77v46.08H465.45z"/>
		<path class="st0" d="M511.89,121.79c-4.83,0-9.12-1.07-12.87-3.22s-6.69-5.04-8.82-8.69c-2.13-3.65-3.2-7.75-3.2-12.31
			c0-3.48,0.62-6.72,1.87-9.72c1.25-3,2.97-5.62,5.17-7.88s4.75-4,7.65-5.26c2.89-1.26,5.98-1.89,9.25-1.89
			c4.35,0,8.29,1,11.81,2.99s6.36,4.75,8.51,8.26c2.14,3.51,3.32,7.52,3.53,12.02c0,0.3,0,0.56,0,0.79c0,0.22-0.02,0.49-0.04,0.79
			h-43.07c0,3.87,0.87,7.32,2.61,10.35c1.74,3.03,4.15,5.41,7.22,7.13c3.07,1.73,6.58,2.59,10.51,2.59c3.75,0,7.13-0.79,10.15-2.39
			c3.02-1.59,5.45-3.84,7.31-6.75l3.6,2.02c-2.19,3.54-5.14,6.29-8.84,8.24S516.42,121.79,511.89,121.79z M491.91,93.89h38.11
			c-0.39-3.27-1.47-6.18-3.24-8.73c-1.77-2.55-4.02-4.57-6.75-6.05c-2.73-1.48-5.73-2.23-9-2.23c-3.33,0-6.37,0.74-9.11,2.21
			c-2.75,1.47-5,3.49-6.77,6.05S492.3,90.62,491.91,93.89z"/>
		<path class="st0" d="M573.81,120.35V74.27h4.77v6.57c1.14-2.19,3.02-4.07,5.65-5.65c2.62-1.57,5.92-2.36,9.88-2.36
			c3.57,0,6.63,0.73,9.18,2.18c2.55,1.46,4.5,3.58,5.85,6.39c1.35,2.81,2.02,6.23,2.02,10.28v28.67h-4.77V92.54
			c0-5.1-1.18-8.99-3.53-11.68c-2.36-2.68-5.68-4.03-9.97-4.03c-3,0-5.57,0.6-7.7,1.8c-2.13,1.2-3.76,2.77-4.91,4.72
			c-1.14,1.95-1.71,4.04-1.71,6.26v30.73H573.81z"/>
		<path class="st0" d="M632.84,65.13c-0.6,0-1.16-0.15-1.67-0.45c-0.51-0.3-0.92-0.7-1.21-1.21c-0.3-0.51-0.45-1.06-0.45-1.67
			c0-0.63,0.15-1.19,0.45-1.69s0.7-0.89,1.21-1.19c0.51-0.3,1.06-0.45,1.67-0.45c0.63,0,1.19,0.15,1.69,0.45s0.89,0.7,1.19,1.19
			s0.45,1.04,0.45,1.64c0,0.63-0.15,1.2-0.45,1.71c-0.3,0.51-0.7,0.92-1.19,1.21C634.04,64.98,633.47,65.13,632.84,65.13z
			 M630.46,120.35V74.27h4.77v46.08H630.46z"/>
		<path class="st0" d="M655.43,120.35V74.27h4.77v6.57c1.14-2.19,3.02-4.07,5.65-5.65c2.62-1.57,5.92-2.36,9.88-2.36
			c3.57,0,6.63,0.73,9.18,2.18c2.55,1.46,4.5,3.58,5.85,6.39c1.35,2.81,2.02,6.23,2.02,10.28v28.67h-4.77V92.54
			c0-5.1-1.18-8.99-3.53-11.68c-2.36-2.68-5.68-4.03-9.97-4.03c-3,0-5.57,0.6-7.7,1.8c-2.13,1.2-3.76,2.77-4.91,4.72
			c-1.14,1.95-1.71,4.04-1.71,6.26v30.73H655.43z"/>
		<path class="st0" d="M705.34,145.1c-1.5,0-2.92-0.19-4.25-0.56c-1.33-0.38-2.45-0.92-3.35-1.64l1.4-3.78
			c1.38,1.2,3.19,1.8,5.44,1.8c5.07,0,7.61-3.33,7.61-9.99V74.27h4.77v56.79c0,4.59-0.98,8.08-2.95,10.46
			C712.04,143.91,709.15,145.1,705.34,145.1z M714.56,65.04c-0.6,0-1.16-0.15-1.67-0.45c-0.51-0.3-0.92-0.7-1.24-1.22
			c-0.31-0.51-0.47-1.06-0.47-1.66c0-0.63,0.16-1.2,0.47-1.71c0.32-0.51,0.73-0.91,1.24-1.21c0.51-0.3,1.06-0.45,1.67-0.45
			c0.6,0,1.15,0.15,1.67,0.45c0.51,0.3,0.92,0.71,1.24,1.24c0.32,0.52,0.47,1.09,0.47,1.69s-0.16,1.15-0.47,1.66
			c-0.31,0.51-0.73,0.92-1.24,1.22C715.72,64.89,715.16,65.04,714.56,65.04z"/>
		<path class="st0" d="M756.86,121.79c-4.35,0-8.26-1.06-11.72-3.17c-3.46-2.12-6.21-5.02-8.23-8.71c-2.03-3.69-3.04-7.89-3.04-12.6
			c0-4.74,1-8.95,3.02-12.62c2.01-3.67,4.75-6.57,8.21-8.69c3.46-2.11,7.39-3.17,11.77-3.17c4.38,0,8.34,1.07,11.88,3.19
			c3.54,2.13,6.18,5.07,7.92,8.82V74.27h4.77v46.08h-4.77v-10.67c-1.95,3.78-4.66,6.74-8.12,8.89S761.18,121.79,756.86,121.79z
			 M757.85,117.56c3.72,0,7.01-0.86,9.88-2.59c2.87-1.72,5.12-4.12,6.75-7.18s2.45-6.55,2.45-10.48c0-3.96-0.82-7.46-2.45-10.51
			c-1.63-3.04-3.88-5.43-6.75-7.16c-2.87-1.72-6.16-2.59-9.88-2.59c-3.72,0-7.01,0.86-9.88,2.59c-2.87,1.73-5.12,4.11-6.77,7.16
			c-1.65,3.04-2.47,6.55-2.47,10.51c0,3.93,0.82,7.42,2.47,10.46c1.65,3.05,3.91,5.44,6.77,7.18
			C750.84,116.69,754.13,117.56,757.85,117.56z"/>
	</g>
	<g>
		<path class="st1" d="M296.33,178.3H284.9l-2.06,4.39h-2.54l9.04-19.34h2.54l9.04,19.34h-2.54L296.33,178.3z M295.37,176.22
			l-4.75-10.16l-4.78,10.16H295.37z"/>
		<path class="st1" d="M307.67,163.35h6.92c6.51,0,11.1,4,11.1,9.66s-4.6,9.68-11.1,9.68h-6.92V163.35z M314.59,180.69
			c5.13,0,8.74-3.18,8.74-7.69c0-4.48-3.61-7.66-8.74-7.66H310v15.34H314.59z"/>
		<path class="st1" d="M335.31,165.43v6.36h11.13v2.08h-11.13v6.73h12.36v2.08h-14.71v-19.34h14.71v2.08H335.31z"/>
		<path class="st1" d="M354.65,163.35h8.33c4.24,0,7.55,2.56,7.55,6.19c0,3.63-3.31,6.19-7.55,6.19h-6v6.95h-2.33V163.35z
			 M362.56,173.65c3.34,0,5.61-1.52,5.61-4.11c0-2.59-2.27-4.11-5.61-4.11h-5.58v8.22H362.56z"/>
		<path class="st1" d="M382.73,165.43h-6.89v-2.08h16.12v2.08h-6.89v17.26h-2.33V165.43z"/>
		<path class="st1" d="M398.46,181.48c0-0.79,0.72-1.49,1.64-1.49c0.87,0,1.58,0.7,1.58,1.49c0,0.84-0.72,1.55-1.58,1.55
			C399.18,183.03,398.46,182.33,398.46,181.48z"/>
		<path class="st1" d="M435.44,178.3h-11.43l-2.06,4.39h-2.54l9.04-19.34h2.54l9.04,19.34h-2.54L435.44,178.3z M434.48,176.22
			l-4.75-10.16l-4.78,10.16H434.48z"/>
		<path class="st1" d="M455.23,172.5h8.21v7.57c-1.91,1.8-5.13,2.96-7.97,2.96c-5.67,0-10.51-4.59-10.51-10.02
			c0-5.43,4.83-9.99,10.51-9.99c2.84,0,6.06,1.13,7.97,2.96l-1.58,1.52c-1.49-1.49-4.15-2.45-6.39-2.45c-4.42,0-8.15,3.66-8.15,7.97
			c0,4.34,3.73,8,8.15,8c1.91,0,4.12-0.7,5.64-1.8v-4.62h-5.88V172.5z"/>
		<path class="st1" d="M470.99,163.35h2.33v19.34h-2.33V163.35z"/>
		<path class="st1" d="M494.21,180.61v2.08h-13.52v-19.34h2.33v17.26H494.21z"/>
		<path class="st1" d="M502.92,165.43v6.36h11.13v2.08h-11.13v6.73h12.36v2.08h-14.71v-19.34h14.71v2.08H502.92z"/>
		<path class="st1" d="M522.08,181.48c0-0.79,0.72-1.49,1.64-1.49c0.87,0,1.58,0.7,1.58,1.49c0,0.84-0.72,1.55-1.58,1.55
			C522.8,183.03,522.08,182.33,522.08,181.48z"/>
		<path class="st1" d="M559.06,178.3h-11.43l-2.06,4.39h-2.54l9.04-19.34h2.54l9.04,19.34h-2.54L559.06,178.3z M558.1,176.22
			l-4.75-10.16l-4.78,10.16H558.1z"/>
		<path class="st1" d="M567.51,163.35h2.63L575.8,179l5.43-15.65h2.6l5.43,15.65l5.67-15.65h2.63l-7.01,19.34h-2.3l-5.7-16.47
			l-5.73,16.47h-2.3L567.51,163.35z"/>
		<path class="st1" d="M606.37,165.43v6.36h11.13v2.08h-11.13v6.73h12.36v2.08h-14.71v-19.34h14.71v2.08H606.37z"/>
		<path class="st1" d="M624.72,179.93l1.46-1.72c1.73,1.63,3.85,2.79,6.72,2.79c3.16,0,4.78-1.63,4.78-3.38
			c0-2.06-1.94-2.87-5.52-3.66c-4.12-0.9-6.72-2.11-6.72-5.46c0-3.1,2.92-5.52,6.87-5.52c3.04,0,5.31,1.13,7.19,2.76l-1.43,1.72
			c-1.7-1.55-3.73-2.48-5.88-2.48c-2.54,0-4.39,1.58-4.39,3.35c0,2,2.03,2.7,5.52,3.49c3.91,0.87,6.71,2.2,6.71,5.6
			c0,3.07-2.45,5.57-7.22,5.57C629.44,183,626.78,181.85,624.72,179.93z"/>
		<path class="st1" d="M646.18,173.01c0-5.43,4.83-9.99,10.51-9.99c5.7,0,10.48,4.56,10.48,9.99c0,5.43-4.78,10.02-10.48,10.02
			C651.01,183.03,646.18,178.44,646.18,173.01z M664.8,173.01c0-4.31-3.7-7.97-8.12-7.97c-4.42,0-8.15,3.66-8.15,7.97
			c0,4.34,3.73,8,8.15,8C661.1,181,664.8,177.34,664.8,173.01z"/>
		<path class="st1" d="M674.5,163.35h2.33l7.61,13.48l7.61-13.48h2.33v19.34h-2.33v-14.61l-7.61,13.49l-7.61-13.49v14.61h-2.33
			V163.35z"/>
		<path class="st1" d="M704.89,165.43v6.36h11.13v2.08h-11.13v6.73h12.36v2.08h-14.71v-19.34h14.71v2.08H704.89z"/>
		<path class="st1" d="M724.05,181.48c0-0.79,0.72-1.49,1.64-1.49c0.87,0,1.58,0.7,1.58,1.49c0,0.84-0.72,1.55-1.58,1.55
			C724.76,183.03,724.05,182.33,724.05,181.48z"/>
	</g>
</g>
<g id="Ninja_1_">
	<g>
		<path class="st2" d="M171.29,76.01c-0.03,0.43-0.06,5.68-1.77,11.64c-2.49,8.65-6.42,12.32-6.82,13.24
			c0.19,0.15,6.95-4.23,14.72-3.92c8.53,0.34,8.61,4.71,8.73,5.03c0.01,0.48,0.73,1.82-2.37,4.15c-1.61,1.21-4.09,2.02-5.78,3.29
			c-1.17,0.87-1.86,1.19-1.8,2.81c0.01,0.24,0.54,1.6,1.92,1.62c1.32,0.02,3.41-0.86,4.07-0.07c0.82,0.97,0.94,4.16-0.43,5.75
			c-1.22,1.42-4.07,1.38-6.41,0.75c-3.1-0.85-6.33-3.01-6.47-3.45c-0.15-0.46-0.17-3.83-3.1-8.7c-2.04-3.39-3.27-5.78-4.15-5.99
			c-0.09,0.25,1.91,2.47,5.18,9.82c0.8,1.79,1.23,3.25,1.54,4.8c0.44,2.18,0.6,3.96,0.53,4.21c-4.91-0.13-9.04-0.66-16.25,1.83
			c-7.78,2.68-15.54,5.72-15.66,5.72c-0.26,0.24-0.45,1.94-0.73,3.63c-0.28,1.72-0.98,2.41-0.6,2.98c0.23,0.34,0.32,0.48,0.83,0.92
			c0.71,0.6,1.73,1.83,2.62,2.92c1.3,1.58,9.55,12.88,3.67,18.19c-3.68,3.32-9.62,4.18-14.88,1.53c-5.04-2.54-9.17-9.16-9.56-9.19
			c-0.19,0.32,0.75,4,1.97,5.61c0.9,1.15,3.85,4.41,8.2,6.16c1.36,0.55,2.53,0.99,3.84,1.26c1.05,0.21,2.34,0.23,2.66,0.71
			c0.5,0.77-0.76,2.75-2.17,3.23c-1.49,0.51-2.82,0.54-5.11-0.39c-4.05-2.21-5.37-3.83-7.74-7.05c-0.23-0.29-0.48-0.72-0.7-0.52
			c-0.01,0.83-0.61,8.31-3.8,12.31c-4.57,5.72-9.23,5.02-10.34,4.84c-0.27-0.04-4.61-0.23-10.35-4.48c-4.17-3.08-7.27-9-8.56-11.47
			c-0.02-0.04,5.44-3.67,15.39-5.68c7.24-1.46,15.65-0.37,15.81-0.37c-0.33-1.67-0.38-3.45-0.81-4.9
			c-0.28-0.03-7.56-2.21-14.07-1.71c-8.01,0.61-15.48,4.12-16.68,4.66c-0.17-0.36-2.62-5.4-2.69-15.19
			c-0.06-7.61,2.53-11.68,2.55-11.74c0.04-0.1,0.62-1.36,0.66-1.48c0.17-0.51,1.39-2.48,1.49-2.64c0.11-0.2,0.66-1.02,0.82-1.24
			c0.41-0.56,1.01-1.18,1.49-1.73c0.17-0.19,0.45-0.48,0.66-0.66c0.9-0.78,1.54-1.09,2.39-1.73c0.32-0.24,0.71-0.38,1.07-0.66
			c0.35-0.28,1.03-0.63,1.57-0.91c-3.6,0.58-5.96,1.9-8.47,3.86c-2.45,1.91-4.33,4.49-5.5,7.38c-2.19,5.4-2.08,11.2-1.4,15.59
			c0.51,6.67,4.88,16.84,4.83,17.45c-2.91-5.21-3.38-6.32-5.31-12.58c-1.92-7.2-2.33-11.02-0.46-18.92c0.72-3.04,3.45-7.21,3.43-7.5
			c-0.01-0.21-3.87-2.14-8.05-5.13c-5.03-3.59-10.68-8.43-12.38-10.11c-0.01-0.01,0.5-1.74,0.94-4.07c0.47-2.49,0.77-5.74,2.21-7.98
			c3.36-5.24,5.78-4.51,5.8-4.52c0.15,0.08,5.61,3.71,7.12,4.49c0.56,0.29,7.21,2.85,8.37,3.23c0.02,0.01,0.63,0.57-0.76-2.27
			c-0.67-1.38-1.23-2.93-1.78-4.83c-0.95-3.29-1.49-6.89-1.66-8.84c-1.12,0.67-1.85,1.64-3.89,2.92c-0.71,0.44-2.76,2.02-6.1,1.98
			c-3.54-0.04-4.22-0.59-6.07-1.57c-3.35-1.77-5.67-3.81-7.27-4.66c2.51-1.72,4.08-3.02,8.44-3.83c3.79-0.41,4.44-0.07,6.8,0.41
			c-0.49-0.47-2.04-1.11-4.34-3.15c-2.03-1.79-2.66-2.2-4.95-6.47c-2.01-3.75-1.6-9.51-1.52-10.42c1.41-0.07,5.5,0.51,9.5,2.77
			c2.9,1.64,5.22,3.99,5.96,4.84c2.11,2.44,2.53,3.76,3.1,5.08c0.38,1.13,0.36,1.33,0.5,1.41c0.12-0.74,0.25-1.45,0.37-2.24
			c0.19-1,0.33-1.4,0.65-2.64c2.57-8.81,7.06-14.48,12.1-20.32c-2.05-2.45-3.68-3.79-5.73-5.7c2.32-1.93,26.52-20.08,53.03-6.09
			C173.62,47.25,171.34,75.21,171.29,76.01z M106.13,42.5c-5.71,2.79-8.53,5.46-12.06,9.51c-2.94,3.38-5.67,7.79-7.17,13.32
			c-0.75,2.75-0.95,4.99-0.83,8.16c1.11-1.91,1.31-2.59,1.59-3.35c1.05-2.76,2.06-4.82,3.17-7.2c2.89-6.17,7.22-11.02,11.98-15.42
			c1.78-1.65,6.48-4.98,6.42-5.86C109.42,41.57,107.9,41.93,106.13,42.5z M70.21,67.47c1.74,2.18,3.82,4.59,6.26,5.31
			c1.35,0.4,2.85,0.4,3.3-0.5c-2.5-1.36-5.39-2.65-8.36-6.32c-5.24-6.48-5.59-8.5-5.63-8.5c0,0.06-0.64,1.31,1.45,5.16
			C68.55,65.07,69.18,66.18,70.21,67.47z M117.09,120.49c0.26,0.05,7.25,1.21,14.04,0.23c6.47-0.93,13-4.39,13.59-4.67
			c1.17-0.57,2.42-1.41,3.53-2.09c0.17-0.1,0.34-0.2,0.5-0.31c8.83-5.95,11.43-10.87,12.74-12.82c0.65-0.96,1.74-3.06,1.77-3.12
			c0.08-0.15,2.75-5.47,3.27-9.77c0.54-4.45-0.95-6.44-1.02-6.56c-1.33-2.34-4.36-2.59-5.82-2.77c-4.12-0.53-9.16-0.18-9.31-0.16
			c-2.91,0.38-13.64,1.12-19.2-0.8c-2.03-0.7-4.12-1.64-6-2.7c-5.78-3.27-10.27-7.75-10.99-8.35c-0.63-0.52-3.78-3.53-7.3-4.61
			c-4.83-1.49-11.12,5.24-13.67,15.13c-1.05,4.09-2.14,14.86,1.51,19.61c3.13,4.08,7.36,5.66,11.37,5.46
			c1.24-0.06,5.13-0.45,11.35-2.66c3.71-1.32,7.28-1.89,11.25-1.08c4.41,0.9,8.25,5.94,11.63,9.91c4.09,4.8,8.43,4.53,8.67,4.51
			c-1.96,1.39-4.1,2.28-6.35,3.12c-10.97,4.08-18.97,3.23-28.13,1.26c0.33,0.07,0.97,1.28,1.12,1.48
			C115.97,119.2,116.75,120.42,117.09,120.49z M73.79,82.24c-1.85,0.34-3.17-0.14-4.37-0.54c-1.78-0.59-3.19-1.31-4.79-2.24
			c-1.44-0.77-1.05-0.97-0.83-0.92c0.78,0.3,3.09,1.77,8.08,1.63c4.2-0.12,6.79-1.21,7.33-1.41c0.25,0.19-0.88,1.25-2.16,2.13
			C76.41,81.33,75.53,81.93,73.79,82.24z M101.79,111.19c-4.89-3.26-8.16-6.58-12.2-12.46c0.22,4.66,5.26,11.02,8.81,13.13
			c0.73,0.43,0.91,0.12,1.66-0.08C100.79,111.59,101.66,111.33,101.79,111.19z M116,141.25c0.95-4.26,1.11-7.36,0.7-11.63
			c-0.49-5.03-1.97-10.04-5.06-12.89c-2.08-1.91-5.34-3.3-8.78-3.04c-5.29,0.41-8.42,2.63-10.38,6.57c3.27-2.08,7.89-4.35,13.04-3.3
			c1.51,0.31,3.16,1.27,4.21,2.31c2.27,2.28,3.71,6.62,4.29,10.48c0.72,4.79,0.81,9.65,0.74,14.7
			C115.47,143.38,115.76,142.33,116,141.25z M121.72,138.56c0.41,1.32,3.79,2.08,6.57,0.86c2.27-1.09,4.29-3.22,3.74-4.9
			c-0.12-0.36-2,1.29-4.52,2.49C124.99,138.21,121.69,137.97,121.72,138.56z"/>
		<path class="st2" d="M123.97,85.93c-1.42,0.1-4.05-1.29-5.6-0.93c0.23,1.68,0.51,3.39-0.13,5.19c-0.67,1.89-1.24,2.32-2.24,3.36
			c-3.29,3.44-8.13,1.74-9.4,1.06c-2.15-1.16-3.39-3.09-3.85-4.55c-0.7-2.21-0.37-3.92-0.19-4.56c0.47-1.67,1.2-2.77,1.73-3.39
			c0.82-1.01,2.3-2.22,4-2.64c1.72-0.42,3.53-0.14,3.79-0.16c-0.17-0.71-1.94-3-4.1-3.19c-2.58-0.22-5.54,1.8-5.72,1.92
			c0.04-0.03-0.07-1.44,0.21-3c0.22-1.26,0.61-2.29,0.92-3.1c0.3-0.79,1.52-4.23,5.32-3.74c3.68,0.48,6.13,5.4,6.77,6.45
			c0.59,0.97,1.11,1.83,2.24,3.83C120.12,82.72,123.05,85.27,123.97,85.93z M104.09,87.84c0.45,3.16,3.15,6.32,6.83,6.01
			c3.54-0.29,6.22-3.62,5.51-8.23c-0.64,0.78-0.99,1.31-1.41,2.37c-0.29-1.23-0.64-2.63-1.3-4.94c-0.28-0.97-0.38-1.41-0.91-1.61
			c-2.48-0.32-3.83-0.57-5.5,0.42C105.39,82.99,103.96,85.18,104.09,87.84z"/>
		<path class="st2" d="M69.38,86.53c-0.08,0-4.05,1.72-5.51,7.05c-0.74,2.72-0.94,5.51-0.98,5.87c-0.06,0.5-0.14,1.06-0.26,1.56
			c-0.19,0.78-0.61,1.59-1.12,2.2c-0.65,0.77-1.54,1.32-2.49,1.62c-0.7,0.22-1.44,0.36-2.17,0.41c-0.64,0.04-1.35,0.09-1.99-0.04
			c-0.63-0.13-2.55-0.65-3.2-1.85c-0.64-1.16-0.04-2.99,0.1-3.3c0.22-0.48,0.42-1.11,0.95-1.34c0.26-0.11,0.64-0.25,0.92-0.27
			c0.65-0.05,1.03,0.02,1.46-0.02c0.38-0.03,0.8-0.09,1.07-0.39c0.13-0.15,0.19-0.27,0.21-0.46c0.11-1.15-0.27-2.34-1.47-3.07
			c-0.94-0.57-1.89-1.15-2.84-1.69c-0.95-0.54-1.97-1.1-2.92-1.64c-0.79-0.45-1.44-1.12-1.98-1.88c-0.6-0.84-0.73-1.69-0.4-2.68
			c0.59-1.76,1.99-3.28,3.6-4.19c1.09-0.62,1.74-1.07,3.84-1.2c0.8-0.05,1.86,0.09,2.66,0.19c0.43,0.06,0.99,0.16,1.42,0.25
			c0.41,0.09,0.66,0.21,1.07,0.3c0.42,0.09,0.76,0.19,1.17,0.31c0.42,0.12,0.82,0.2,1.23,0.35c0.33,0.12,0.62,0.22,0.95,0.34
			c0.54,0.19,1.17,0.47,1.7,0.69c0.85,0.35,1.62,0.73,2.43,1.17c0.4,0.22,0.83,0.48,1.21,0.73c0.16,0.11,0.42,0.2,0.56,0.33
			C68.65,85.91,69.31,86.53,69.38,86.53z"/>
		<path class="st2" d="M111.07,83c-0.7,0.77-1,1.22-1.02,2.15c-0.04,1.72,1.38,3.68,3.49,3.4c0.48-0.06,0.92-0.2,1.47-0.29
			c-0.09,2.92-3.15,5.16-6.63,4.2c0.27-2.6-2.17-3.55-3.01-3.45C104.49,84.85,108.11,82.33,111.07,83z"/>
		<path class="st2" d="M161,95.32c-0.03,0.03-2.33-4.04-4.84-4.8c-1.9-0.57-4.16,0.1-4.11,0.26c0.07,0.21,2.91,1.93,3.24,5.92
			c0.29,3.5-1.55,5.6-1.61,5.73c-0.08,0.19-1.3,1.95-3.3,2.85c-3.28,1.48-5.25,0.6-6.07,0.41c-0.95-0.45-3.26-1.18-4.86-4
			c-0.79-1.39-1.26-3.92-0.82-6.01c0.43-2.05,1.89-3.66,2.42-4.17c0.14-0.14-1.96-1.82-2.11-2.01c-0.09-0.12-0.82-0.74-0.76-0.89
			c0.02-0.04,1.56,0.25,4.71-0.5c3.47-0.82,7.99-1.92,12.03-1.73c4.96,0.23,5.6,3.98,5.72,4.36c0.33,1.01,0.31,2.01,0.36,3.05
			c0.01,0.18-0.02,0.37-0.04,0.55C160.95,94.47,161.05,95.28,161,95.32z M140.38,99.24c0.53,2.16,2.54,4.35,4.77,4.86
			c4.03,0.93,7.22-1.54,8.07-4.51c0.16-0.56,0.34-1.61,0.33-2.23c-0.04-2.36-2.1-5.09-3.47-5.52c-0.49-0.15-0.68,0.33-1.15,0.51
			c-0.28,0.11-0.76-0.11-1,0.15c-0.36,0.4-1.66,1.86-0.91,3.92c0.79,2.16,3.59,2.25,4.79,1.45c-0.1,1.88-1.63,3.66-2.56,4.16
			c-1.26,0.67-3.09,0.68-4.17,0.2c0.06-0.44-0.01-1.04-0.1-1.41c-0.05-0.23-0.57-1.09-1.25-1.51c-0.61-0.38-1.23-0.48-1.76-0.47
			c-0.5-2.76,1.02-4.77,2.59-5.8c-0.6-0.22-1.29-0.36-1.84-0.66C140.56,93.94,139.71,96.49,140.38,99.24z"/>
		<path class="st2" d="M49.35,116.31c1.46,5.8,1.33,5.42,2.14,8.6c0.13,0.49-0.74,0.26-0.6,1.12c0.57,3.61,3.55,2.85,4.54,2.5
			c0.49-0.46,0.13-0.58,0.31-1.25c0.21,0,7.61-2.03,8.68-2.19c-2.21,2.41-3.86,4.09-6.2,6.23c-0.94-0.5-2.71,0.32-2.65,2.85
			c0.04,1.51,1.44,2.31,1.66,2.62c0.7-0.27,0.32-0.05,0.95-0.44c2.35,2.27,4.14,4.12,6.35,6.25c-3.54-0.8-4.67-1.06-8.61-2.18
			c-0.04-0.73-0.21-1.14-0.91-1.39c-0.34-0.14-2.28-0.35-3.19,0.66c-1.06,1.19-1.4,2.64-0.32,3.17c-0.95,4.24-1.27,5.35-2.12,8.68
			c-1.4-4.62-2.4-7.76-2.4-8.55c0-0.1,0.44-0.36,0.7-0.71c0.01-0.02-0.15-2.65-1.9-3.15c-2.56-0.72-3.13,0.75-3.12,1.22
			c-4.03,1.17-4.78,1.38-8.5,2.34c2.08-2.33,3.88-4.09,6.11-6.43c0.12,0.05,0.61,0.54,1.05,0.45c0.65-0.13,1.87-2.07,1.62-3.39
			c-0.31-1.68-1.15-2.04-1.72-2.27c-0.59,0.17-0.22,0.06-0.82,0.29c-2.19-2.18-2.16-1.97-6.25-6.36c6.11,1.54,7.36,1.88,8.44,2.36
			c0.24,0.45,0.15,0.84,0.45,1.16c0.23,0.24,1.78,0.37,2.61,0.21c1.14-0.22,2.1-2.61,2.07-3.19c-0.01-0.18-0.77-0.17-0.63-0.86
			C47.5,122.66,48.2,120.63,49.35,116.31z M49.35,121.51c-0.2,0.43-0.89,2.64-0.81,2.96c0.05,0.21,0.83,0.62,0.86,0.62
			c0.04,0,0.59-0.52,0.66-0.67C50.19,124.09,49.55,121.97,49.35,121.51z M38.54,127.67c0.86,0.93,2.31,2.13,2.37,2.19
			c0.29-0.22,0.76-0.25,0.86-0.29c0.03-0.02-0.14-0.65-0.08-0.98C40.62,128.23,39.86,127.9,38.54,127.67z M57.12,128.44
			c-0.07,0.63-0.04,0.55-0.14,1.11c0.5,0.16,0.77,0.31,0.91,0.28c0.05-0.01,1.13-0.98,1.71-2.1
			C58.89,127.95,58.3,128.22,57.12,128.44z M47.71,134.65c0.41,1.17,2.89,1.47,3.26-0.34c0.28-1.36-0.78-2.61-2.29-2.09
			C47.72,132.55,47.34,133.59,47.71,134.65z M38.54,140.16c1.31-0.36,1.34-0.36,3.14-0.97c0,0,0.04-0.64,0.04-1
			c-0.95-0.22-0.93-0.24-0.94-0.23C39.73,138.86,39.31,139.31,38.54,140.16z M57.94,138c-0.42,0.09-0.42,0.09-0.87,0.15
			c-0.01,0.34,0.01,0.69,0.06,0.98c0.03,0.16,1.13,0.4,2.77,0.9C59.08,139.02,58.34,138.43,57.94,138z M48.53,143.28
			c0.53,1.47,0.53,1.58,0.82,2.65c0.39-1.15,0.31-0.87,0.78-2.61c-0.27-0.21-0.68-0.6-0.75-0.6
			C49.26,142.72,48.82,143.06,48.53,143.28z"/>
		<path class="st2" d="M111.85,183.44c1.46,5.8,1.33,5.42,2.14,8.6c0.13,0.49-0.74,0.26-0.6,1.12c0.57,3.61,3.55,2.85,4.54,2.5
			c0.49-0.46,0.13-0.58,0.31-1.25c0.21,0,7.61-2.03,8.68-2.19c-2.21,2.41-3.86,4.09-6.2,6.23c-0.94-0.5-2.71,0.32-2.65,2.85
			c0.04,1.51,1.44,2.31,1.66,2.62c0.7-0.27,0.32-0.05,0.95-0.44c2.35,2.27,4.14,4.12,6.35,6.25c-3.54-0.8-4.67-1.06-8.61-2.18
			c-0.04-0.73-0.21-1.14-0.91-1.39c-0.34-0.14-2.28-0.35-3.19,0.66c-1.06,1.19-1.4,2.64-0.32,3.17c-0.95,4.24-1.27,5.35-2.12,8.68
			c-1.4-4.62-2.4-7.76-2.4-8.55c0-0.1,0.44-0.36,0.7-0.71c0.01-0.02-0.15-2.65-1.9-3.15c-2.56-0.72-3.13,0.75-3.12,1.22
			c-4.03,1.17-4.78,1.38-8.5,2.34c2.08-2.33,3.88-4.09,6.11-6.43c0.12,0.05,0.61,0.54,1.05,0.45c0.65-0.13,1.87-2.07,1.62-3.39
			c-0.31-1.68-1.15-2.04-1.72-2.27c-0.59,0.17-0.22,0.06-0.82,0.29c-2.19-2.18-2.16-1.97-6.25-6.36c6.11,1.54,7.36,1.88,8.44,2.36
			c0.24,0.45,0.15,0.84,0.45,1.16c0.23,0.24,1.78,0.37,2.61,0.21c1.14-0.22,2.1-2.61,2.07-3.19c-0.01-0.18-0.77-0.17-0.63-0.86
			C110,189.79,110.7,187.77,111.85,183.44z M111.85,188.64c-0.2,0.43-0.89,2.64-0.81,2.96c0.05,0.21,0.83,0.62,0.86,0.62
			c0.04,0,0.59-0.52,0.66-0.67C112.69,191.22,112.05,189.11,111.85,188.64z M101.04,194.8c0.86,0.93,2.31,2.13,2.37,2.19
			c0.29-0.22,0.76-0.25,0.86-0.29c0.03-0.02-0.14-0.65-0.08-0.98C103.12,195.36,102.36,195.04,101.04,194.8z M119.63,195.57
			c-0.07,0.63-0.04,0.55-0.14,1.11c0.5,0.16,0.77,0.31,0.91,0.28c0.05-0.01,1.13-0.98,1.71-2.1
			C121.39,195.08,120.8,195.35,119.63,195.57z M110.21,201.79c0.41,1.17,2.89,1.47,3.26-0.34c0.28-1.36-0.78-2.61-2.29-2.09
			C110.22,199.68,109.84,200.73,110.21,201.79z M101.04,207.3c1.31-0.36,1.34-0.36,3.14-0.97c0,0,0.04-0.64,0.04-1
			c-0.95-0.22-0.93-0.24-0.94-0.23C102.23,205.99,101.81,206.44,101.04,207.3z M120.44,205.13c-0.42,0.09-0.42,0.09-0.87,0.15
			c-0.01,0.34,0.01,0.69,0.06,0.98c0.03,0.16,1.13,0.4,2.77,0.9C121.58,206.15,120.84,205.56,120.44,205.13z M111.03,210.41
			c0.53,1.47,0.53,1.58,0.82,2.65c0.39-1.15,0.31-0.87,0.78-2.61c-0.27-0.21-0.68-0.6-0.75-0.6
			C111.76,209.85,111.32,210.2,111.03,210.41z"/>
		<path class="st2" d="M171.33,134.53c1.46,5.8,1.33,5.42,2.14,8.6c0.13,0.49-0.74,0.26-0.6,1.12c0.57,3.61,3.55,2.85,4.54,2.5
			c0.49-0.46,0.13-0.58,0.31-1.25c0.21,0,7.61-2.03,8.68-2.19c-2.21,2.41-3.86,4.09-6.2,6.23c-0.94-0.5-2.71,0.32-2.65,2.85
			c0.04,1.51,1.44,2.31,1.66,2.62c0.7-0.27,0.32-0.05,0.95-0.44c2.35,2.27,4.14,4.12,6.35,6.25c-3.54-0.8-4.67-1.06-8.61-2.18
			c-0.04-0.73-0.21-1.14-0.91-1.39c-0.34-0.14-2.28-0.35-3.19,0.66c-1.06,1.19-1.4,2.64-0.32,3.17c-0.95,4.24-1.27,5.35-2.12,8.68
			c-1.4-4.62-2.4-7.76-2.4-8.55c0-0.1,0.44-0.36,0.7-0.71c0.01-0.02-0.15-2.65-1.9-3.15c-2.56-0.72-3.13,0.75-3.12,1.22
			c-4.03,1.17-4.78,1.38-8.5,2.34c2.08-2.33,3.88-4.09,6.11-6.43c0.12,0.05,0.61,0.54,1.05,0.45c0.65-0.13,1.87-2.07,1.62-3.39
			c-0.31-1.68-1.15-2.04-1.72-2.27c-0.59,0.17-0.22,0.06-0.82,0.29c-2.19-2.18-2.16-1.97-6.25-6.36c6.11,1.54,8.02,2.26,8.44,2.36
			c0.15,0.39,0.18,0.78,0.45,1.16c0.2,0.27,1.78,0.37,2.61,0.21c1.14-0.22,2.1-2.61,2.07-3.19c-0.01-0.18-0.77-0.17-0.63-0.86
			C169.48,140.88,170.17,138.85,171.33,134.53z M171.33,139.73c-0.2,0.43-0.89,2.64-0.81,2.96c0.05,0.21,0.83,0.62,0.86,0.62
			c0.04,0,0.59-0.52,0.66-0.67C172.17,142.31,171.52,140.2,171.33,139.73z M160.52,145.89c0.86,0.93,2.31,2.13,2.37,2.19
			c0.29-0.22,0.76-0.25,0.86-0.29c0.03-0.02-0.14-0.65-0.08-0.98C162.59,146.45,161.83,146.12,160.52,145.89z M179.1,146.66
			c-0.07,0.63-0.04,0.55-0.14,1.11c0.5,0.16,0.77,0.31,0.91,0.28c0.05-0.01,1.13-0.98,1.71-2.1
			C180.87,146.17,180.27,146.44,179.1,146.66z M169.69,152.87c0.41,1.17,2.89,1.47,3.26-0.34c0.28-1.36-0.78-2.61-2.29-2.09
			C169.7,150.77,169.32,151.81,169.69,152.87z M160.52,158.38c1.31-0.36,1.34-0.36,3.14-0.97c0,0,0.04-0.64,0.04-1
			c-0.95-0.22-0.93-0.24-0.94-0.23C161.71,157.08,161.29,157.53,160.52,158.38z M179.92,156.22c-0.42,0.09-0.42,0.09-0.87,0.15
			c-0.01,0.34,0.01,0.69,0.06,0.98c0.03,0.16,1.13,0.4,2.77,0.9C181.06,157.24,180.32,156.65,179.92,156.22z M170.5,161.5
			c0.53,1.47,0.53,1.58,0.82,2.65c0.39-1.15,0.31-0.87,0.78-2.61c-0.27-0.21-0.68-0.6-0.75-0.6
			C171.24,160.94,170.8,161.28,170.5,161.5z"/>
	</g>
	<path class="st2" d="M85.74,127.7"/>
	<line class="st2" x1="102.8" y1="93.42" x2="102.8" y2="93.43"/>
	<path class="st2" d="M166.93,85.79"/>
</g>
</svg>
